#define checkmark_width 10
#define checkmark_height 10
static unsigned char checkmark_bits[] = {
  0x00, 0x01, 0x80, 0x01, 0x80, 0x00, 0xc0, 0x00, 0x40, 0x00, 0x60, 0x00,
  0x22, 0x00, 0x36, 0x00, 0x1c, 0x00, 0x18, 0x00, };
