#define right_arrow_width 10
#define right_arrow_height 11
static unsigned char right_arrow_bits[] = {
  0x00, 0x00, 0x02, 0x00, 0x0e, 0x00, 0x3e, 0x00, 0xfe, 0x00, 0xfe, 0x01,
  0xfe, 0x00, 0x3e, 0x00, 0x0e, 0x00, 0x02, 0x00, 0x00, 0x00, };
